<svg version="1.1" xmlns="http://www.w3.org/2000/svg" xmlns:xlink="http://www.w3.org/1999/xlink" width="16" height="16" viewBox="0,0,256,256"><g fill="#4dbc39" fill-rule="nonzero" stroke="none" stroke-width="1" stroke-linecap="butt" stroke-linejoin="miter" stroke-miterlimit="10" stroke-dasharray="" stroke-dashoffset="0" font-family="none" font-weight="none" font-size="none" text-anchor="none" style="mix-blend-mode: normal"><g transform="scale(16,16)"><path d="M0,4c0,-1.10457 0.89543,-2 2,-2h12c1.10457,0 2,0.89543 2,2v8c0,1.10457 -0.89543,2 -2,2h-12c-1.10457,0 -2,-0.89543 -2,-2zM2,3c-0.55228,0 -1,0.44772 -1,1v0.217l7,4.2l7,-4.2v-0.217c0,-0.55228 -0.44772,-1 -1,-1zM15,5.383l-4.708,2.825l4.708,2.897zM14.966,12.259l-5.64,-3.471l-1.326,0.795l-1.326,-0.795l-5.64,3.47c0.11684,0.43754 0.51313,0.74193 0.966,0.742h12c0.45258,0.00006 0.84878,-0.30386 0.966,-0.741M1,11.105l4.708,-2.897l-4.708,-2.825z"></path></g></g></svg>